<svg xmlns="http://www.w3.org/2000/svg" width="217" height="124" viewBox="0 0 217 124"><g><g><g><path fill="#11a8e8" d="M19.396 51.062L162.254 6.256c10.21-3.202 21.228 1.71 25.383 11.317l28.106 65c3.687 8.53-2.064 18.133-11.505 19.25L20.9 123.47c-8.066.952-15.164-5.16-15.167-13.056L5.71 69.33c.003-8.326 5.532-15.711 13.686-18.268z"/></g><g><path fill="#e21eb8" d="M13.135 48.04L151.62 1.13c9.903-3.354 20.808.988 25.127 10.001L206.038 72.1c3.845 7.999-1.504 17.311-10.718 18.655l-178.704 26.11C8.754 118.013 1.65 112.414 1.421 104.9L.257 65.825C.03 57.906 5.234 50.717 13.135 48.039z"/></g><g><path fill="#161670" d="M18.67 43.524L163.503 6.167c10.35-2.67 21.023 3.014 24.584 13.092l24.105 68.179a14.282 14.282 0 0 1-12.594 19.016L15.883 117.712a13.513 13.513 0 0 1-14.33-14.264l2.42-42.035A19.633 19.633 0 0 1 18.67 43.524z"/></g><g><path fill="#fff" d="M13.28 67.272c0-6.943 3.078-12.25 7.679-13.353 2.903-.694 5.065-.142 6.337 2.188.795 1.456.353 2.643-1.032 3.45l-.723.413c-1.047.606-1.69.33-2.322-.258a2.18 2.18 0 0 0-2.105-.55c-2.065.467-3.355 3.31-3.355 7.225 0 3.914 1.272 6.136 3.329 5.73 1.587-.309 2.673-1.86 2.838-4.347l-1.651.349c-1.112.227-1.734-.486-1.734-1.99v-.033c0-1.474.676-2.45 1.904-2.712l4.387-.942c1.238-.258 1.994-.018 1.994 1.398v.517c-.005 7.348-3.027 12.276-7.93 13.164-4.67.854-7.616-3.148-7.616-10.249z"/></g><g><path fill="#fff" d="M31.56 72.585V54.36c0-1.793.704-2.933 2.005-3.243l7.74-1.848c1.358-.325 2.098.498 2.098 2.34v.354c0 1.843-.74 3.009-2.097 3.316l-4.903 1.102v3.56l4.446-.965c1.355-.294 2.095.429 2.095 2.016v.033c0 1.61-.74 2.635-2.095 2.913l-4.446.914v3.69l4.903-.966c1.357-.258 2.097.586 2.097 2.428v.33c0 1.843-.74 2.978-2.097 3.229l-7.741 1.419c-1.308.24-2.005-.604-2.005-2.397z"/></g><g><path fill="#fff" d="M48.61 72.223c-1.397.258-2.15-.611-2.15-2.467V50.902c0-1.855.753-3.042 2.15-3.375l.866-.209c1.41-.335 2.178.501 2.178 2.377v6.938l4.105-8.796c.738-1.571 1.61-2.402 2.839-2.699l1.228-.291c2.033-.488 2.838.55 1.47 3.217l-4.879 9.475 5.23 8.726c1.278 2.132.54 3.463-1.424 3.824l-1.352.258c-1.246.23-2.16-.333-2.82-1.56L51.664 60.5v8.275c0 1.878-.774 3.037-2.177 3.295l-.867.16z"/></g><g><path fill="#fff" d="M80.009 66.455c-1.42.258-2.323-.374-2.818-1.94L71.244 45.59c-.604-1.927.165-3.514 1.917-3.935l1.254-.3c1.416-.337 2.299.295 2.732 1.9L81 57.536l3.917-16.102c.45-1.842 1.368-2.918 2.854-3.274l1.334-.32c1.889-.449 2.738.81 2.064 3.132L84.852 63.06c-.516 1.777-1.435 2.76-2.877 3.024l-1.977.363z"/></g><g><path fill="#fff" d="M103.824 52.514l-5.29 1.073 2.62-10.241zM105.3 36.58c-.547-1.63-1.564-2.226-3.127-1.852l-2.028.495c-1.54.37-2.521 1.424-3.063 3.29L90.57 60.91c-.673 2.275.165 3.584 2.064 3.235l1.11-.204c1.533-.28 2.49-1.313 2.96-3.204l.371-1.505 8.257-1.581.392 1.383c.485 1.747 1.479 2.438 3.096 2.141l1.182-.216c2.041-.374 2.965-2.075 2.235-4.196z"/></g><g><path fill="#fff" d="M115.52 56.636V34.853c0-2.141 1.006-3.545 2.87-3.989l1.504-.361c1.594-.38 2.66.067 3.514 1.458l7.444 12.127V31.293c0-2.21 1.068-3.662 3.045-4.129l1.23-.294c2-.477 3.097.477 3.097 2.714V52.33c0 2.238-1.094 3.654-3.097 4.02l-1.568.29c-1.67.304-2.774-.204-3.654-1.657l-7.416-12.274v12.61c0 2.172-1.032 3.54-2.915 3.888l-1.185.217c-1.863.335-2.869-.643-2.869-2.787z"/></g><g><path fill="#fff" d="M19.698 106.698c-2.647.325-5.106-.823-6.154-3.11-.681-1.488-.289-2.837.888-3.46l.353-.188c.988-.516 1.6-.144 2.211.674.728.975 1.616 1.432 2.666 1.29 1.236-.168 2.005-1.032 2.005-2.247 0-3.515-8.239-.274-8.239-8.567 0-4.128 2.444-7.248 6.046-7.893 2.722-.488 4.995.325 6.048 2.451.851 1.716.482 3.128-.914 3.752l-.371.168c-1.432.64-1.902-.176-2.612-.888-.585-.586-1.204-.844-1.973-.715a2.108 2.108 0 0 0-1.838 2.165c0 4.007 8.546.067 8.546 8.564 0 4.369-2.817 7.53-6.662 7.999z"/></g><g><path fill="#fff" d="M39.85 91.877c0 4.27-1.414 6.631-3.538 6.928-2.123.296-3.483-1.689-3.483-5.891 0-4.033 1.38-6.518 3.499-6.869 2.064-.34 3.517 1.72 3.517 5.809zm-3.545 12.777c4.479-.552 8.571-4.624 8.571-13.52 0-8.727-4.126-11.73-8.515-10.944-4.389.787-8.241 5.076-8.241 13.475 0 8.571 3.808 11.536 8.185 10.989z"/></g><g><path fill="#fff" d="M47.83 100.112V81.2c0-1.86.759-3.006 2.162-3.256l7.55-1.34c1.46-.257 2.255.635 2.255 2.545v.322c0 1.91-.794 3.079-2.255 3.318l-4.474.741v4.603l3.958-.63c1.458-.224 2.253.664 2.253 2.454v.037c0 1.824-.795 2.949-2.253 3.158l-3.976.565v5.725c0 1.884-.774 3.001-2.193 3.177l-.872.108c-1.396.173-2.155-.746-2.155-2.614z"/></g><g><path fill="#fff" d="M65.315 97.858v-16.3l-1.971.325c-1.489.246-2.294-.663-2.294-2.58v-.369c0-1.914.805-3.096 2.294-3.354l9.627-1.721c1.548-.279 2.412.642 2.412 2.616v.382c0 1.974-.851 3.187-2.412 3.445l-2.01.325v16.498c0 1.956-.836 3.122-2.366 3.31l-.945.117c-1.517.188-2.335-.762-2.335-2.694z"/></g><g><path fill="#fff" d="M84.803 98.43c-1.458.181-2.402-.546-2.838-2.198l-5.223-19.6c-.534-2 .279-3.5 2.044-3.816l1.267-.227c1.478-.258 2.376.462 2.76 2.168l2.952 13.082L88.63 73.76c.382-1.873 1.321-2.94 2.862-3.213l.33-.059c1.548-.279 2.51.495 2.898 2.245l2.962 13.379 3.176-14.478c.42-1.917 1.38-3.006 3.001-3.298l1.424-.258c1.982-.353 2.921.898 2.302 3.272l-5.819 22.32c-.485 1.852-1.496 2.837-3.05 3.036l-1.246.152c-1.579.196-2.539-.606-2.933-2.4l-2.89-13.172L88.807 95.2c-.384 1.881-1.316 2.893-2.838 3.078l-1.164.145z"/></g><g><path fill="#fff" d="M121.733 83.954l-5.669.808 2.812-10.453zm9.025 4.892l-7.444-21.292c-.601-1.721-1.675-2.395-3.355-2.095l-2.177.39c-1.654.294-2.702 1.333-3.285 3.235l-6.967 22.807c-.71 2.317.189 3.728 2.222 3.47l1.187-.147c1.643-.203 2.668-1.218 3.17-3.145l.4-1.548 8.843-1.164.418 1.455c.53 1.838 1.592 2.612 3.329 2.398l1.27-.158c2.193-.268 3.173-1.976 2.4-4.216z"/></g><g><path fill="#fff" d="M148.39 71.41c0 2.633-1.145 4.218-4.342 4.7l-2.27.343v-7.95l2.27-.377c3.195-.528 4.339.706 4.339 3.283zm6.999 14.094l-3.489-6.466c3.104-2.394 4.415-5.852 4.415-9.588 0-6.582-2.676-10.017-12.076-8.337l-6.866 1.218c-2.002.366-3.083 1.757-3.083 3.979v22.595c0 2.222 1.081 3.305 3.083 3.047l1.311-.162c2.026-.258 3.133-1.62 3.133-3.87V82.35l2.268-.32c.32-.044.634-.095.941-.15l2.782 6.054c.787 1.741 1.87 2.49 3.736 2.257l1.468-.18c3.035-.374 3.757-1.956 2.377-4.508z"/></g><g><path fill="#fff" d="M161.01 85.434V61.722c0-2.322 1.192-3.811 3.4-4.206l13.204-2.358c2.322-.418 3.612.668 3.612 3.083v.464c0 2.418-1.272 3.94-3.612 4.325l-8.347 1.38v4.645l7.588-1.19c2.323-.363 3.613.594 3.613 2.676v.044c0 2.11-1.272 3.44-3.613 3.777l-7.588 1.11v4.815l8.365-1.146c2.322-.32 3.612.818 3.612 3.236v.433c0 2.415-1.272 3.886-3.612 4.173l-13.203 1.63c-2.22.271-3.419-.846-3.419-3.179z"/></g></g></g></svg>